<?xml version="1.0" encoding="utf-8"?>
<!-- Generator: Adobe Illustrator 19.2.0, SVG Export Plug-In . SVG Version: 6.00 Build 0)  -->
<svg version="1.1" id="Layer_1" xmlns="http://www.w3.org/2000/svg" xmlns:xlink="http://www.w3.org/1999/xlink" x="0px" y="0px"
	 viewBox="0 0 262 12.5" style="enable-background:new 0 0 262 12.5;" xml:space="preserve">
<style type="text/css">
	.st0{fill:#FFFFFF;}
</style>
<g>
	<g>
		<g>
			<path class="st0" d="M6.5,12.3l-2-4H3.2v4H0V0.3h5.3c0.7,0,1.3,0.1,1.9,0.2c0.6,0.1,1.1,0.4,1.5,0.7c0.4,0.3,0.7,0.7,0.9,1.2
				C9.9,2.9,10,3.5,10,4.2c0,0.9-0.2,1.6-0.6,2.2C9,7,8.5,7.4,7.8,7.7l2.4,4.6H6.5z M6.4,3.4C6.1,3.1,5.8,3,5.2,3h-2v2.6h2
				c0.5,0,0.9-0.1,1.2-0.3c0.2-0.2,0.3-0.6,0.3-1C6.7,3.9,6.6,3.6,6.4,3.4z"/>
		</g>
		<g>
			<path class="st0" d="M12.2,12.3V0.3h9.1v2.8h-5.9v1.6H19v2.7h-3.5v2h6v2.8H12.2z"/>
		</g>
		<g>
			<path class="st0" d="M33.5,9.1c-0.3,0.8-0.7,1.4-1.2,1.9c-0.5,0.5-1.2,0.8-2,1c-0.8,0.2-1.7,0.3-2.8,0.3h-3.9V0.3h4.2
				c0.9,0,1.8,0.1,2.5,0.3c0.8,0.2,1.4,0.5,1.9,1c0.5,0.5,0.9,1.1,1.2,1.8c0.3,0.7,0.4,1.7,0.4,2.8C33.9,7.3,33.8,8.3,33.5,9.1z
				 M30.4,4.9c-0.1-0.4-0.3-0.7-0.5-1c-0.2-0.2-0.5-0.4-0.9-0.6c-0.4-0.1-0.8-0.2-1.3-0.2h-0.8v6.3h0.7c0.5,0,1-0.1,1.3-0.2
				c0.4-0.1,0.7-0.3,0.9-0.5c0.2-0.2,0.4-0.6,0.5-1c0.1-0.4,0.2-0.9,0.2-1.5C30.5,5.7,30.5,5.3,30.4,4.9z"/>
		</g>
		<g>
			<path class="st0" d="M48,12.3V7.6h-3.7v4.7h-3.4V0.3h3.4v4.4H48V0.3h3.4v11.9H48z"/>
		</g>
		<g>
			<path class="st0" d="M61.5,12.3l-0.6-2.1h-3.6l-0.6,2.1h-3.5l4.3-11.9h3.3l4.3,11.9H61.5z M59.8,6.7c-0.1-0.4-0.2-0.7-0.3-1
				c-0.1-0.3-0.2-0.5-0.2-0.8c-0.1-0.2-0.1-0.4-0.2-0.6c0-0.2-0.1-0.4-0.1-0.6C59,4,59,4.2,58.9,4.4c0,0.2-0.1,0.4-0.2,0.6
				c-0.1,0.2-0.1,0.5-0.2,0.8c-0.1,0.3-0.2,0.6-0.3,1l-0.2,0.8h2L59.8,6.7z"/>
		</g>
		<g>
			<path class="st0" d="M71.3,3.2v9.1H68V3.2h-3.3V0.3h10v2.9H71.3z"/>
		</g>
	</g>
	<g>
		<path class="st0" d="M78.6,2c-0.1,0.1-0.1,0.3-0.3,0.4c-0.1,0.1-0.2,0.2-0.4,0.3c-0.1,0.1-0.3,0.1-0.5,0.1c-0.2,0-0.3,0-0.5-0.1
			c-0.1-0.1-0.3-0.1-0.4-0.3c-0.1-0.1-0.2-0.2-0.3-0.4c-0.1-0.1-0.1-0.3-0.1-0.5c0-0.2,0-0.3,0.1-0.5c0.1-0.1,0.1-0.3,0.3-0.4
			c0.1-0.1,0.2-0.2,0.4-0.3c0.1-0.1,0.3-0.1,0.5-0.1c0.2,0,0.3,0,0.5,0.1c0.1,0.1,0.3,0.1,0.4,0.3c0.1,0.1,0.2,0.2,0.3,0.4
			c0.1,0.1,0.1,0.3,0.1,0.5C78.7,1.7,78.6,1.8,78.6,2z M78.4,1.1c-0.1-0.1-0.1-0.2-0.2-0.3c-0.1-0.1-0.2-0.2-0.3-0.2
			c-0.1-0.1-0.3-0.1-0.4-0.1c-0.1,0-0.3,0-0.4,0.1c-0.1,0.1-0.2,0.1-0.3,0.2c-0.1,0.1-0.2,0.2-0.2,0.3c-0.1,0.1-0.1,0.3-0.1,0.4
			c0,0.1,0,0.3,0.1,0.4s0.1,0.2,0.2,0.3c0.1,0.1,0.2,0.2,0.3,0.2c0.1,0,0.3,0.1,0.4,0.1c0.1,0,0.3,0,0.4-0.1
			c0.1-0.1,0.2-0.1,0.3-0.2c0.1-0.1,0.2-0.2,0.2-0.3c0.1-0.1,0.1-0.3,0.1-0.4C78.5,1.4,78.4,1.2,78.4,1.1z M77.9,1.5
			c-0.1,0.1-0.1,0.1-0.2,0.1L78,2.1h-0.3l-0.3-0.5h-0.3v0.5H77V0.8h0.6c0.1,0,0.1,0,0.2,0c0.1,0,0.1,0,0.1,0.1C77.9,1,77.9,1,78,1
			c0,0,0,0.1,0,0.2C78,1.3,78,1.4,77.9,1.5z M77.7,1.1c0,0-0.1,0-0.1,0h-0.3v0.4h0.3c0.1,0,0.1,0,0.1,0c0,0,0.1-0.1,0.1-0.1
			C77.8,1.2,77.8,1.1,77.7,1.1z"/>
	</g>
	<g>
		<path class="st0" d="M91.7,12.3V7.8c0-0.2,0-0.4,0-0.6s0-0.5,0-0.8c0-0.3,0-0.5,0-0.7c0-0.2,0-0.4,0-0.5c-0.1,0.2-0.2,0.5-0.4,0.9
			S91,6.8,90.9,7.2l-2.5,5.4L86,7.2c-0.2-0.3-0.3-0.7-0.5-1.1s-0.3-0.7-0.4-0.9c0,0.1,0,0.3,0,0.5c0,0.2,0,0.5,0,0.7
			c0,0.3,0,0.5,0,0.8c0,0.3,0,0.5,0,0.6v4.4h-2.4V0.2h2.3l2.5,5.5c0.1,0.2,0.2,0.4,0.2,0.5c0.1,0.2,0.2,0.4,0.2,0.6
			c0.1,0.2,0.1,0.4,0.2,0.5c0.1,0.2,0.1,0.3,0.1,0.4c0.1-0.2,0.2-0.5,0.3-0.9c0.1-0.4,0.3-0.8,0.5-1.1l2.4-5.5h2.4v12.1H91.7z"/>
		<path class="st0" d="M106.8,8.8c-0.3,0.8-0.6,1.4-1.1,2c-0.5,0.5-1,0.9-1.7,1.2c-0.7,0.3-1.4,0.4-2.2,0.4c-0.8,0-1.5-0.1-2.2-0.4
			c-0.7-0.3-1.2-0.7-1.7-1.2c-0.5-0.5-0.8-1.2-1.1-2c-0.3-0.8-0.4-1.6-0.4-2.6c0-1,0.1-1.9,0.4-2.6s0.6-1.4,1.1-2s1-0.9,1.7-1.2
			c0.7-0.3,1.4-0.4,2.2-0.4c0.8,0,1.5,0.1,2.1,0.4c0.6,0.3,1.2,0.7,1.7,1.2c0.5,0.5,0.8,1.2,1.1,2c0.3,0.8,0.4,1.6,0.4,2.6
			C107.2,7.2,107,8.1,106.8,8.8z M103.9,3.4c-0.5-0.7-1.2-1-2.1-1s-1.5,0.3-2,1C99.3,4,99,5,99,6.2s0.3,2.2,0.8,2.8s1.2,1,2.1,1
			s1.5-0.3,2-1c0.5-0.7,0.8-1.6,0.8-2.8C104.7,5,104.4,4.1,103.9,3.4z"/>
		<path class="st0" d="M119.1,10.1c-0.2,0.5-0.5,0.9-0.9,1.2c-0.4,0.3-0.8,0.6-1.4,0.7c-0.5,0.2-1.1,0.3-1.8,0.3h-5.5V0.2h5.5
			c1.2,0,2.1,0.3,2.8,0.8c0.7,0.5,1,1.3,1,2.4c0,0.5-0.1,1-0.3,1.4c-0.2,0.4-0.5,0.7-0.9,1c0.5,0.2,0.9,0.5,1.2,1
			c0.3,0.4,0.5,1,0.5,1.7C119.4,9,119.3,9.6,119.1,10.1z M116.2,2.7c-0.2-0.2-0.6-0.3-1.1-0.3H112v2.3h3.2c0.5,0,0.9-0.1,1.1-0.3
			c0.2-0.2,0.3-0.5,0.3-0.8C116.5,3.2,116.4,2.9,116.2,2.7z M115.2,6.9H112V10h3.2c0.6,0,1-0.1,1.3-0.4c0.3-0.3,0.4-0.7,0.4-1.1
			C116.9,7.4,116.3,6.9,115.2,6.9z"/>
		<path class="st0" d="M122,12.3V0.2h2.4v12.1H122z"/>
		<path class="st0" d="M127.7,12.3V0.2h2.4v9.7h6.1v2.4H127.7z"/>
		<path class="st0" d="M138.4,12.3V0.2h8.4v2.4h-6v2.1h3.5V7h-3.5v2.9h6.2v2.4H138.4z"/>
		<path class="st0" d="M162.7,12.3l-0.9-2.7h-4.4l-0.9,2.7h-2.6l4.6-12.1h2.3l4.6,12.1H162.7z M160.1,5.1c-0.1-0.4-0.2-0.7-0.4-1
			s-0.2-0.6-0.2-0.8c-0.1,0.2-0.1,0.5-0.3,0.8s-0.2,0.7-0.4,1l-0.8,2.2h2.8L160.1,5.1z"/>
		<path class="st0" d="M176.7,5.8c-0.2,0.5-0.5,0.9-0.9,1.2s-0.9,0.6-1.4,0.7S173.3,8,172.7,8H170v4.3h-2.4V0.2h5.3
			c0.6,0,1.1,0.1,1.6,0.2c0.5,0.2,0.9,0.4,1.3,0.7s0.7,0.7,0.9,1.2c0.2,0.5,0.3,1,0.3,1.7C177,4.7,176.9,5.3,176.7,5.8z M174.1,2.9
			c-0.3-0.2-0.7-0.4-1.3-0.4H170v3.1h2.8c1.2,0,1.7-0.5,1.7-1.6C174.5,3.5,174.4,3.2,174.1,2.9z"/>
		<path class="st0" d="M179.5,12.3V0.2h2.4v12.1H179.5z"/>
		<path class="st0" d="M199.1,12.3V7.8c0-0.2,0-0.4,0-0.6s0-0.5,0-0.8c0-0.3,0-0.5,0-0.7c0-0.2,0-0.4,0-0.5
			c-0.1,0.2-0.2,0.5-0.4,0.9s-0.3,0.7-0.5,1.1l-2.5,5.4l-2.4-5.4c-0.2-0.3-0.3-0.7-0.5-1.1s-0.3-0.7-0.4-0.9c0,0.1,0,0.3,0,0.5
			c0,0.2,0,0.5,0,0.7c0,0.3,0,0.5,0,0.8c0,0.3,0,0.5,0,0.6v4.4h-2.4V0.2h2.3l2.5,5.5c0.1,0.2,0.2,0.4,0.2,0.5
			c0.1,0.2,0.2,0.4,0.2,0.6c0.1,0.2,0.1,0.4,0.2,0.5c0.1,0.2,0.1,0.3,0.1,0.4c0.1-0.2,0.2-0.5,0.3-0.9c0.1-0.4,0.3-0.8,0.5-1.1
			l2.4-5.5h2.4v12.1H199.1z"/>
		<path class="st0" d="M212.6,12.3l-0.9-2.7h-4.4l-0.9,2.7h-2.6l4.6-12.1h2.3l4.6,12.1H212.6z M210.1,5.1c-0.1-0.4-0.2-0.7-0.4-1
			s-0.2-0.6-0.2-0.8c-0.1,0.2-0.1,0.5-0.3,0.8s-0.2,0.7-0.4,1l-0.8,2.2h2.8L210.1,5.1z"/>
		<path class="st0" d="M226.7,5.8c-0.2,0.5-0.5,0.9-0.9,1.2s-0.9,0.6-1.4,0.7S223.2,8,222.6,8h-2.7v4.3h-2.4V0.2h5.3
			c0.6,0,1.1,0.1,1.6,0.2c0.5,0.2,0.9,0.4,1.3,0.7s0.7,0.7,0.9,1.2c0.2,0.5,0.3,1,0.3,1.7C227,4.7,226.9,5.3,226.7,5.8z M224,2.9
			c-0.3-0.2-0.7-0.4-1.3-0.4h-2.8v3.1h2.8c1.2,0,1.7-0.5,1.7-1.6C224.5,3.5,224.3,3.2,224,2.9z"/>
		<path class="st0" d="M238.4,5.8c-0.2,0.5-0.5,0.9-0.9,1.2c-0.4,0.3-0.9,0.6-1.4,0.7S235,8,234.3,8h-2.7v4.3h-2.4V0.2h5.3
			c0.6,0,1.1,0.1,1.6,0.2c0.5,0.2,0.9,0.4,1.3,0.7s0.7,0.7,0.9,1.2c0.2,0.5,0.3,1,0.3,1.7C238.7,4.7,238.6,5.3,238.4,5.8z
			 M235.8,2.9c-0.3-0.2-0.7-0.4-1.3-0.4h-2.8v3.1h2.8c1.2,0,1.7-0.5,1.7-1.6C236.2,3.5,236.1,3.2,235.8,2.9z"/>
		<path class="st0" d="M241,12.3V0.2h8.4v2.4h-6v2.1h3.5V7h-3.5v2.9h6.2v2.4H241z"/>
		<path class="st0" d="M259.2,12.3l-2.2-4.3h-2.4v4.3h-2.4V0.2h5.6c0.6,0,1.1,0.1,1.6,0.2c0.5,0.2,0.9,0.4,1.3,0.7s0.7,0.7,0.9,1.2
			s0.3,1,0.3,1.7c0,0.9-0.2,1.7-0.6,2.2s-1,1-1.7,1.3l2.3,4.7H259.2z M259.1,2.9c-0.3-0.2-0.7-0.4-1.3-0.4h-3.2v3.1h3.2
			c1.2,0,1.7-0.5,1.7-1.6C259.5,3.5,259.4,3.1,259.1,2.9z"/>
	</g>
</g>
</svg>
