<?xml version="1.0" encoding="utf-8"?>
<!-- Generator: Adobe Illustrator 19.2.0, SVG Export Plug-In . SVG Version: 6.00 Build 0)  -->
<svg version="1.1" id="Layer_1" xmlns="http://www.w3.org/2000/svg" xmlns:xlink="http://www.w3.org/1999/xlink" x="0px" y="0px"
	 viewBox="0 0 257.2 18" style="enable-background:new 0 0 257.2 18;" xml:space="preserve">
<style type="text/css">
	.st0{fill:#FFFFFF;}
</style>
<g>
	<path class="st0" d="M12.8,17.6v-6.4c0-0.2,0-0.5,0-0.9c0-0.4,0-0.7,0-1.1c0-0.4,0-0.7,0-1.1c0-0.3,0-0.6,0-0.7
		c-0.1,0.3-0.3,0.8-0.5,1.3c-0.2,0.5-0.5,1.1-0.7,1.6L8.1,18l-3.5-7.7c-0.2-0.5-0.5-1-0.7-1.6s-0.4-1-0.5-1.3c0,0.2,0,0.4,0,0.7
		c0,0.3,0,0.7,0,1.1c0,0.4,0,0.8,0,1.1c0,0.4,0,0.7,0,0.9v6.4H0V0.3h3.3L7,8.1c0.1,0.2,0.2,0.5,0.3,0.8c0.1,0.3,0.2,0.5,0.3,0.8
		c0.1,0.3,0.2,0.5,0.3,0.7C8,10.7,8.1,10.9,8.1,11c0.1-0.3,0.3-0.8,0.5-1.3c0.2-0.6,0.4-1.1,0.7-1.6l3.5-7.9h3.4v17.3H12.8z"/>
	<path class="st0" d="M34.4,12.7c-0.4,1.1-0.9,2-1.6,2.8c-0.7,0.8-1.5,1.4-2.4,1.8c-0.9,0.4-2,0.6-3.1,0.6c-1.1,0-2.2-0.2-3.1-0.6
		c-0.9-0.4-1.7-1-2.4-1.8c-0.7-0.8-1.2-1.7-1.6-2.8c-0.4-1.1-0.6-2.3-0.6-3.8c0-1.4,0.2-2.7,0.6-3.8c0.4-1.1,0.9-2,1.6-2.8
		c0.7-0.8,1.5-1.4,2.4-1.8c0.9-0.4,2-0.6,3.1-0.6c1.1,0,2.2,0.2,3.1,0.6c0.9,0.4,1.7,1,2.4,1.8c0.7,0.8,1.2,1.7,1.6,2.8
		C34.8,6.3,35,7.5,35,8.9C35,10.3,34.8,11.6,34.4,12.7z M30.3,4.9c-0.8-1-1.8-1.4-3-1.4s-2.2,0.5-2.9,1.4c-0.7,0.9-1.1,2.3-1.1,4.1
		s0.4,3.1,1.1,4.1s1.7,1.4,3,1.4c1.2,0,2.2-0.5,2.9-1.4c0.7-0.9,1.1-2.3,1.1-4.1C31.4,7.2,31,5.8,30.3,4.9z"/>
	<path class="st0" d="M52.1,14.4c-0.3,0.7-0.7,1.3-1.3,1.8s-1.2,0.8-1.9,1.1c-0.8,0.2-1.6,0.4-2.5,0.4h-7.9V0.3h8c1.7,0,3,0.4,4,1.2
		c1,0.8,1.5,1.9,1.5,3.4c0,0.7-0.2,1.4-0.5,2s-0.8,1-1.3,1.4c0.7,0.3,1.3,0.8,1.7,1.4c0.5,0.6,0.7,1.4,0.7,2.4
		C52.5,12.9,52.4,13.7,52.1,14.4z M47.9,3.9c-0.3-0.3-0.9-0.4-1.6-0.4h-4.4v3.3h4.6c0.7,0,1.2-0.2,1.5-0.5c0.3-0.3,0.4-0.7,0.4-1.2
		C48.4,4.6,48.3,4.2,47.9,3.9z M46.5,9.8h-4.6v4.5h4.6c0.8,0,1.5-0.2,1.9-0.6c0.4-0.4,0.6-1,0.6-1.6C49,10.6,48.1,9.8,46.5,9.8z"/>
	<path class="st0" d="M56.3,17.6V0.3h3.4v17.3H56.3z"/>
	<path class="st0" d="M64.5,17.6V0.3h3.4v13.9h8.7v3.4H64.5z"/>
	<path class="st0" d="M79.8,17.6V0.3h12v3.4h-8.6v3h5V10h-5v4.2h8.9v3.4H79.8z"/>
	<path class="st0" d="M114.7,17.6l-1.4-3.9H107l-1.4,3.9h-3.7l6.6-17.3h3.4l6.6,17.3H114.7z M111,7.3c-0.2-0.5-0.4-1-0.5-1.5
		c-0.2-0.5-0.3-0.9-0.4-1.2c-0.1,0.3-0.2,0.7-0.4,1.2c-0.2,0.5-0.3,1-0.5,1.5l-1.1,3.1h4L111,7.3z"/>
	<path class="st0" d="M134.8,8.4c-0.3,0.7-0.8,1.3-1.3,1.8c-0.6,0.5-1.2,0.8-2,1s-1.6,0.3-2.5,0.3h-3.8v6.1h-3.4V0.3h7.6
		c0.8,0,1.6,0.1,2.3,0.3c0.7,0.2,1.4,0.6,1.9,1c0.5,0.5,1,1,1.3,1.7c0.3,0.7,0.5,1.5,0.5,2.4C135.3,6.8,135.1,7.6,134.8,8.4z
		 M131,4.2c-0.5-0.4-1.1-0.5-1.9-0.5h-4v4.4h4.1c1.7,0,2.5-0.7,2.5-2.2C131.7,5.1,131.5,4.5,131,4.2z"/>
	<path class="st0" d="M138.8,17.6V0.3h3.4v17.3H138.8z"/>
	<path class="st0" d="M166.9,17.6v-6.4c0-0.2,0-0.5,0-0.9c0-0.4,0-0.7,0-1.1c0-0.4,0-0.7,0-1.1c0-0.3,0-0.6,0-0.7
		c-0.1,0.3-0.3,0.8-0.5,1.3s-0.5,1.1-0.7,1.6l-3.5,7.7l-3.5-7.7c-0.2-0.5-0.5-1-0.7-1.6c-0.2-0.5-0.4-1-0.5-1.3c0,0.2,0,0.4,0,0.7
		c0,0.3,0,0.7,0,1.1c0,0.4,0,0.8,0,1.1c0,0.4,0,0.7,0,0.9v6.4h-3.4V0.3h3.3l3.6,7.9c0.1,0.2,0.2,0.5,0.3,0.8
		c0.1,0.3,0.2,0.5,0.3,0.8c0.1,0.3,0.2,0.5,0.3,0.7c0.1,0.2,0.2,0.4,0.2,0.6c0.1-0.3,0.3-0.8,0.5-1.3c0.2-0.6,0.4-1.1,0.7-1.6
		l3.5-7.9h3.4v17.3H166.9z"/>
	<path class="st0" d="M186.4,17.6l-1.4-3.9h-6.3l-1.4,3.9h-3.7l6.6-17.3h3.4l6.6,17.3H186.4z M182.7,7.3c-0.2-0.5-0.4-1-0.5-1.5
		c-0.2-0.5-0.3-0.9-0.4-1.2c-0.1,0.3-0.2,0.7-0.4,1.2c-0.2,0.5-0.3,1-0.5,1.5l-1.1,3.1h4L182.7,7.3z"/>
	<path class="st0" d="M206.5,8.4c-0.3,0.7-0.8,1.3-1.3,1.8c-0.6,0.5-1.2,0.8-2,1s-1.6,0.3-2.5,0.3h-3.8v6.1h-3.4V0.3h7.6
		c0.8,0,1.6,0.1,2.3,0.3c0.7,0.2,1.4,0.6,1.9,1c0.5,0.5,1,1,1.3,1.7c0.3,0.7,0.5,1.5,0.5,2.4C207,6.8,206.8,7.6,206.5,8.4z
		 M202.7,4.2c-0.5-0.4-1.1-0.5-1.9-0.5h-4v4.4h4.1c1.7,0,2.5-0.7,2.5-2.2C203.4,5.1,203.2,4.5,202.7,4.2z"/>
	<path class="st0" d="M223.3,8.4c-0.3,0.7-0.8,1.3-1.3,1.8c-0.6,0.5-1.2,0.8-2,1c-0.8,0.2-1.6,0.3-2.5,0.3h-3.8v6.1h-3.4V0.3h7.6
		c0.8,0,1.6,0.1,2.3,0.3c0.7,0.2,1.4,0.6,1.9,1c0.5,0.5,1,1,1.3,1.7c0.3,0.7,0.5,1.5,0.5,2.4C223.8,6.8,223.6,7.6,223.3,8.4z
		 M219.5,4.2c-0.5-0.4-1.1-0.5-1.9-0.5h-4v4.4h4.1c1.7,0,2.5-0.7,2.5-2.2C220.2,5.1,220,4.5,219.5,4.2z"/>
	<path class="st0" d="M227.1,17.6V0.3h12v3.4h-8.6v3h5V10h-5v4.2h8.9v3.4H227.1z"/>
	<path class="st0" d="M253.2,17.6l-3.1-6.2h-3.5v6.2h-3.4V0.3h8.1c0.8,0,1.6,0.1,2.3,0.3c0.7,0.2,1.4,0.6,1.9,1c0.5,0.5,1,1,1.3,1.7
		c0.3,0.7,0.5,1.5,0.5,2.4c0,1.3-0.3,2.4-0.8,3.2c-0.6,0.8-1.4,1.5-2.5,1.9l3.3,6.7H253.2z M253,4.2c-0.4-0.3-1-0.5-1.8-0.5h-4.5
		v4.4h4.5c1.7,0,2.5-0.7,2.5-2.2C253.7,5.1,253.4,4.5,253,4.2z"/>
</g>
</svg>
